<svg width="128" height="128" viewBox="0 0 128 128" fill="none" xmlns="http://www.w3.org/2000/svg">
<path d="M108.023 16H61.8049C61.8049 27.52 71.1289 36.848 82.6519 36.848H91.1519V45.074C91.1519 56.594 100.48 65.922 112 65.922V19.977C111.999 18.9225 111.58 17.9114 110.834 17.1657C110.089 16.4201 109.077 16.0008 108.023 16Z" fill="#2684FF"/>
<path d="M85.1211 39.0401H38.9021C38.9021 50.5591 48.2271 59.8871 59.7461 59.8871H68.2501V68.1131C68.2501 79.6331 77.5781 88.9611 89.0981 88.9611V43.0161C89.0965 41.9618 88.677 40.9511 87.9315 40.2057C87.186 39.4602 86.1754 39.0416 85.1211 39.0401Z" fill="url(#paint0_linear_78_5572)"/>
<path d="M62.219 62.0779H16C16 73.6019 25.324 82.9259 36.848 82.9259H45.348V91.1559C45.348 102.676 54.676 112 66.195 112V66.0589C66.1939 65.0043 65.7748 63.9932 65.0295 63.2472C64.2842 62.5011 63.2735 62.08 62.219 62.0779Z" fill="url(#paint1_linear_78_5572)"/>
<defs>
<linearGradient id="paint0_linear_78_5572" x1="88.1361" y1="39.0921" x2="68.4721" y2="59.3681" gradientUnits="userSpaceOnUse">
<stop offset="0.176" stop-color="#0052CC"/>
<stop offset="1" stop-color="#2684FF"/>
</linearGradient>
<linearGradient id="paint1_linear_78_5572" x1="66.564" y1="62.2559" x2="43.828" y2="84.3759" gradientUnits="userSpaceOnUse">
<stop offset="0.176" stop-color="#0052CC"/>
<stop offset="1" stop-color="#2684FF"/>
</linearGradient>
</defs>
</svg>
