<svg width="32" height="32" viewBox="0 0 32 32" fill="none" xmlns="http://www.w3.org/2000/svg">
<path d="M2 2H30V30H2V2Z" fill="#F5DE19"/>
<path d="M20.809 23.8751C21.048 24.3594 21.4187 24.7665 21.8786 25.0495C22.3385 25.3325 22.869 25.48 23.409 25.4751C24.499 25.4751 25.196 24.9301 25.196 24.1751C25.196 23.2751 24.48 22.9531 23.28 22.4281L22.622 22.1461C20.722 21.3371 19.462 20.3241 19.462 18.1821C19.462 16.2091 20.962 14.7061 23.315 14.7061C24.0767 14.6512 24.8377 14.8218 25.5031 15.1964C26.1685 15.5711 26.709 16.1334 27.057 16.8131L25 18.1281C24.8659 17.7911 24.6326 17.5028 24.331 17.3014C24.0294 17.0999 23.6737 16.9949 23.311 17.0001C23.1528 16.9843 22.993 17.0016 22.8418 17.0509C22.6906 17.1002 22.5513 17.1805 22.4329 17.2866C22.3145 17.3927 22.2194 17.5224 22.1538 17.6672C22.0883 17.8121 22.0536 17.9691 22.052 18.1281C22.052 18.9171 22.541 19.2371 23.67 19.7281L24.328 20.0101C26.564 20.9691 27.828 21.9461 27.828 24.1431C27.828 26.5121 25.967 27.8101 23.468 27.8101C22.4944 27.8715 21.5238 27.6502 20.6731 27.1727C19.8224 26.6953 19.1278 25.9821 18.673 25.1191L20.809 23.8751ZM11.514 24.1031C11.927 24.8361 12.303 25.4561 13.207 25.4561C14.071 25.4561 14.617 25.1181 14.617 23.8031V14.8561H17.248V23.8381C17.248 26.5621 15.648 27.8021 13.319 27.8021C12.4958 27.8471 11.6782 27.6419 10.9737 27.2136C10.2692 26.7852 9.71086 26.1537 9.37201 25.4021L11.514 24.1031Z" fill="black"/>
</svg>
