<svg width="128" height="128" viewBox="0 0 128 128" fill="none" xmlns="http://www.w3.org/2000/svg">
<g clip-path="url(#clip0_78_5576)">
<path d="M12.5 0H115.5C122.425 0 128 5.575 128 12.5V115.5C128 122.425 122.425 128 115.5 128H12.5C5.575 128 0 122.425 0 115.5V12.5C0 5.575 5.575 0 12.5 0Z" fill="url(#paint0_linear_78_5576)"/>
<path d="M78.3199 16.6399H105.36C108.684 16.6399 111.36 19.3159 111.36 22.6399V66.6399C111.36 69.9639 108.684 72.6399 105.36 72.6399H78.3199C74.9959 72.6399 72.3199 69.9639 72.3199 66.6399V22.6399C72.3199 19.3159 74.9959 16.6399 78.3199 16.6399ZM22.6399 16.6399H49.6799C53.0039 16.6399 55.6799 19.3159 55.6799 22.6399V98.6399C55.6799 101.964 53.0039 104.64 49.6799 104.64H22.6399C19.3159 104.64 16.6399 101.964 16.6399 98.6399V22.6399C16.6399 19.3159 19.3159 16.6399 22.6399 16.6399Z" fill="white"/>
</g>
<defs>
<linearGradient id="paint0_linear_78_5576" x1="64" y1="0" x2="64" y2="128" gradientUnits="userSpaceOnUse">
<stop stop-color="#2684FF"/>
<stop offset="1" stop-color="#0052CC"/>
</linearGradient>
<clipPath id="clip0_78_5576">
<rect width="128" height="128" fill="white"/>
</clipPath>
</defs>
</svg>
